<svg xmlns="http://www.w3.org/2000/svg" xmlns:xlink="http://www.w3.org/1999/xlink" width="1280" height="134" viewBox="0 0 1280 134">
  <defs>
    <clipPath id="clip-path">
      <rect id="Rectangle_1051" data-name="Rectangle 1051" width="1280" height="134" transform="translate(0 439)" fill="#fff" stroke="#707070" stroke-width="1"/>
    </clipPath>
    <clipPath id="clip-path-2">
      <rect id="Rectangle_98" data-name="Rectangle 98" width="1872.627" height="573.777" fill="#fff"/>
    </clipPath>
  </defs>
  <g id="Groupe_de_masques_22" data-name="Groupe de masques 22" transform="translate(0 -439)" clip-path="url(#clip-path)">
    <g id="Groupe_16496" data-name="Groupe 16496" transform="translate(-309.788 460.01) rotate(-3)">
      <g id="Groupe_146" data-name="Groupe 146" transform="translate(0 0)" clip-path="url(#clip-path-2)">
        <path id="Tracé_602" data-name="Tracé 602" d="M1702.1,349.706a353.445,353.445,0,0,0,47.75,1.32c16.714-.724,33.346-2.432,49.929-4.058,15.248-1.5,30.386-3.456,45.569-5.211.182.679.358,1.36.537,2.038l-61.316,7.744.518,1.62,72.771-3.325.5,2.1L1710.137,369.3q.235,2.514.476,5.029l39.314,1.6c.026.236.052.474.075.71l-18.674,1.2c.107.859.218,1.718.326,2.576h89.1c.108.739.218,1.48.326,2.22l-69.466,11.009q.528,1.412,1.058,2.825l41.251-3.843c.091.461.182.921.27,1.382-68.509,9.182-137.017,18.366-206.584,27.692h55q.181,1.617.365,3.236-9.754.729-19.5,1.463l.55.315-85.092-5.726-.5,3.054c4.168.536,8.339,1.07,12.79,1.641-45.908,3.739-91.057,7.415-136.206,11.094l.352,2.676h29.064l-11.351,2.456q.283.851.567,1.705l87.088-5.225,10.244,6.138L1158.116,462.9q-.146-1.329-.3-2.659l17.036-.563-.059-1.7H1009.579c168.689,12,336.893,3.472,505.573-2.5a107.288,107.288,0,0,1-27.048,6.09c-13.852,1.039-27.925.89-41.9,1.244q.112,1.689.218,3.375l62.879-2.643q.1,1.015.2,2.03l-100.285,6.032,7.945.84q-.156,1.111-.316,2.225l-78.622-2.266c-.068.35-.137.7-.2,1.047q8.176.6,16.352,1.188c-77.381-.911-154.825,5.455-231.887-1.422,40.158-1.647,80.283-1.554,120.4-1.771,4.041-.023,8.065-1.227,12.09-2.169a91.4,91.4,0,0,1-11.65,1.153c-38.526-.014-77.079.3-115.572-.5-39.992-.826-79.924-2.744-119.877-4.255-10.6-.4-21.171-1.062-31.754-1.6-.007.455-.013.911-.016,1.366l6.118,1.924-23.249.908c10.074,2.018,15.4,3.083,20.738,4.151l-.469,1.488L804.91,469.3c-.023.559-.046,1.117-.072,1.676q98.128,4.613,196.255,9.229-.073,1.316-.14,2.634H884.486c-.042,1.186-.088,2.374-.13,3.559q70.019,1.661,140.045,3.319l-.049,1.349h-90.22c26.866,2.616,50,4.869,72.79,7.09-1.286.735-3.263,1.86-8.157,4.65l52.02,3.11-.117,1.658h-102.7c.006,1.165.016,2.328.023,3.491h88.667l-.039,3.752H921.951c.013.8.029,1.6.042,2.4l18.589,1.18c-107.074-.971-214.473,4.075-320.727-8.851,33.522,4.236,67.033,7.967,100.8,9.916,73.243,4.228,146.623,7.506,219.931,11.324,5.011.261,9.866,1.769,14.792,2.7-.306.621-.615,1.244-.921,1.865q-4.87.36-9.739.722c.088,1.086.173,2.175.26,3.261h116.087l.075,4.269H988.809q.034,1.651.065,3.3h44.071q-.1,1.977-.2,3.955c-69.189-1.726-138.5-2.369-207.538-5.48-68.613-3.092-137.007-8.329-205.389-13.246-60.134-4.323-120.4-8.383-180.1-14.583-81.963-8.515-160.422-25.54-237.969-44.057-24.769-5.914-48.884-12.929-73.3-19.44l1.387-2.1,92.093,23.539,3.113-3.309c-5.714-2.738-10.843-6.363-17.238-8.071-39.913-10.659-80.377-20.5-119.988-31.579C79.5,430.2,68.929,424.015,68.531,419.3c-.44-5.194-5.07-7.131-9.381-10.964l168.7,40.421c.495-.795.987-1.587,1.482-2.382Q144.576,422.532,59.821,398.7l1.133-2.216c3.214-.509,6.428-1.016,11.37-1.8-12.119-5.155-22.809-9.7-33.847-14.39,2.087-.8,3.855-1.48,5.62-2.158L14.011,363.72q4.41-5.578,8.57-10.839l18.068,2.065c-7.3-3.172-10.586-4.6-13.874-6.03l-.12-2.761c5.894-.786,11.914-2.46,17.642-2.121,6.333.375,12.393,2.593,18.57,4.01q.6-.919,1.188-1.833Q33.7,336.539,3.246,326.836c.671-3.278,1.263-6.179,1.794-8.768,14.757-6.179,28.087-2.506,41.919,2.082,20.65,6.852,41.724,13.2,62.885,19.4,6.766,1.98,14.372,2.8,21.6,4.151q.625-1.651,1.254-3.3C89.064,328.615,45.3,316.994,0,301.83c18.443-4.418,97.136,16.621,126.588,31.177,4.692,0,9.387,0,13.711,0-37.24-27.725-76.112-54.89-97.159-88.155,21.705-14.548,46.771-22.362,78.244-22.32-21.9-6.328-17.212-18.513-21.23-28.185,3.709-.288,6.164-.476,7.942-.613C99.044,183.805,91,174.3,81.914,165.22c-8.381-8.375-5.959-14.514,7.512-18.335-.908-5.128-1.778-10.012-2.927-16.5,9.14,1.676,15.6,2.314,21.295,4q44.724,13.251,89.087,27c20.826,6.512,40.451,14.887,62.022,20.04,34.3,8.191,69.847,14.25,104.723,21.492,15.369,3.191,30.734,5.581,46.706,7.545,21.3,2.618,40.3,12.017,61.254,16.812,17.5,4,36.569,5.118,54.582,8.325,30.7,5.465,60.935,12,91.705,17.279,29.044,4.981,58.529,8.923,87.82,13.32l.713-1.856Q639.84,252.173,573.274,240l.733-1.759q77.971,12.894,155.945,25.793l1.182-2.893-131.8-22.562.918-2.3,41.913,4.729c-32.46-8-65.321-14.608-97.98-21.6-3.22-.689-5.184-3.748-7.733-5.707q2.188-1.027,4.37-2.057l28.309,4.923q24.978,6.646,49.952,13.287.718-1.242,1.429-2.481l-19.126-7.415q-16.127-1.695-32.255-3.392l-28.312-4.925q-2.178,1.031-4.366,2.059c-8.811.472-18.169,1.842-23.731-6.231,6.284.538,11,.942,15.7,1.343-19.4-5.335-39.011-9.724-58.936-13.447-3.819-.714-8.8,1.457-13.334,1.782-3.188.23-6.532-.412-13.36-.939l14.962-3.895L404.1,177.819a26.888,26.888,0,0,1,12.595.377c32.1,7.464,64.285,14.8,96.189,22.593,9.423,2.3,18.032,5.962,27.013,9l23.18-.286c-13.008-3.388-25.906-6.953-39.044-10.121-25.645-6.181-51.941-11.4-76.994-18.421-21.184-5.939-40.867-14.012-61.449-20.857-12.152-4.044-24.759-7.535-37.162-11.276.3-.552.6-1.107.905-1.662q20.357,3.694,40.711,7.386.493-1.263.99-2.525l-25.017-6.179h12.4c-30.034-11.429-60.609-23.067-91.184-34.7l1.309-1.478c13.145,1.817,26.29,3.632,42,5.8-12.386-8.11-21.474-14.063-30.565-20.015q1.5-1.732,3.012-3.462l31.828,4.7c-13.985-13.494-47.471-12.747-49.9-32.27,7.388.461,15.33.956,23.268,1.453l.713-1.117q-17.48-5.444-34.954-10.891l.8-3.309c10.97,1.031,21.94,2.059,30.207,2.833,5.425-3,9.238-5.113,12.855-7.114Q297.867,39.89,277.84,33.484q.948-1.369,1.892-2.736,14.6,3.5,29.2,6.994.41-.723.824-1.446c-7.574-3.772-15.144-7.545-23.437-11.677,2.771-1.666,5.177-3.112,7.395-4.447L268.365,1.393Q268.99.7,269.616,0L304.55,9.577l3.022-2.771q-4.62-1.7-9.238-3.394.7-1.564,1.407-3.127l42.414,6.589A93.239,93.239,0,0,1,367.038,4.6c5.767.269,11.266,2.361,17.016,3.323,41.932,7,83.822,14.119,125.937,20.648,5.884.913,13.168-2.272,19.39-1.709,21.9,1.98,43.736,4.408,65.37,7.334,32.913,4.451,65.637,9.457,98.439,14.229q-.415,1.344-.834,2.688c-12.087-1.314-24.242-2.425-36.247-4-11.419-1.5-22.682-3.489-37.292-5.778,37.549,16.838,78.765,17.321,117.933,21.586,39.278,4.277,79.221,6.09,118.874,8.983q.122-1.279.251-2.56l-18.117-1.974.733-2.26,32.366,2.152c-1.993,1.577-3.643,2.885-6.17,4.886,7.176.679,12.663,1.2,20.334,1.922-4.493,1.823-6.779,2.75-11.65,4.724l121.117,7.642q-.156,1.108-.313,2.218c-2.227.668-4.451,1.337-6.161,1.848,8.355,2.473,16.463,5.78,25.329,7.29,14.613,2.489,29.634,4.161,44.628,5.544,18.641,1.718,37.387,3.129,56.161,4.05,20.282,1,40.659,1.246,60.977,2.009.6.021,1,2.152,1.521,3.363h-50.479q43.8,3.352,87.729,5.151c3.113.132,6.5-2.349,13.923-5.238h53.788c-.039-.5-.081-1-.121-1.5l-61.612-3.739.029-2.612c7.779,0,15.571.184,23.336-.031,39.2-1.091,77.284,11.075,117.318,3.247,16.5-3.226,34.32-3.741,55.412-5.881l-29.673-1.08.153-1.306,86.085,2.85q.2,1.173.407,2.347-12.543,3.933-25.088,7.868.835,1.667,1.673,3.332h59.365c-.023.443-.049.888-.071,1.331l-87.873,3.723c.088.71.179,1.418.27,2.127h27.443l-77.189,7.272-.687,4,26.349,4.195q.571-1.614,1.14-3.228l-17.746-1.018.019-1.355,66.4-2.572c-4.037-1.6-5.5-2.179-9.192-3.638,36.348-1.838,69.726-3.522,103.1-5.209.085.712.166,1.422.251,2.131q-12.2,2.657-24.395,5.316c.153.534.3,1.068.456,1.6l58.782-2.181.117,1.924-11.8,2.055,45.357-1.724c-18.7,2.521-40.18.422-55.451,5.649-19.725,6.752-39.536,6.868-59.72,8.795-8.678.83-17.388,1.525-26.085,2.282.091.513.186,1.026.277,1.54l47.4,4.048q.532-1.533,1.058-3.067c-1.768-.437-3.526-.89-5.311-1.3-.5-.114-1.114-.035-1.592-.166-.313-.083-.479-.385-1.491-1.283l171.232-10.62q.112.726.221,1.457-77.463,6.124-155.127,12.263c-6.734,7.386-18.915,6.13-30.607,6.142-12.36.012-24.727.3-37.074.693-11.654.377-23.284,1.055-34.925,1.6l.44,2.109h189.04c0,.78,0,1.562,0,2.342H1464.067q.025,1.5.042,3.007l31.871,1.453q-.1,1.763-.2,3.526h-74.138c.084.631.166,1.26.247,1.891h95.378l.078,1.148q-105.762,3.151-211.52,6.3c75.5,5.163,151.171,8.149,227.237,2.9l-9.612,1.581c.1.43.2.863.3,1.293q10.2.382,20.406.766c-.013.238-.026.478-.042.718q-26.521,1.856-53.052,3.717l.143,1.819h32.32c.01.486.02.973.026,1.459q-17.8,1.85-35.6,3.7.449,1.505.9,3.015l147.915-6.624c.01.331.023.662.036.993l-38.129,3.452c.007.393.016.786.023,1.18l21.585.813q.259,1.1.524,2.2L1470.547,220.9l.091,1.956,118.919,4.06c.072.323.14.646.208.968-29.637,2.6-59.274,5.2-87.938,7.71,3.018.329,7.394.8,11.771,1.277q-.225,1.251-.449,2.5h-71.12q.093,1.291.186,2.578h57.109q0,1.31-.006,2.622c-16.616,0-33.29-.532-49.822.223-8.407.383-16.554,3.088-28.146,5.407,43.381,1.351,82.165,2.56,120.951,3.77q-.034,1.465-.062,2.934c-6.782.275-13.565.552-25,1.016,6.043,1.213,7.73,1.552,9.417,1.891.036.42.072.84.1,1.262H1471.3c.016.4.033.8.046,1.194L1518.49,266q-.259,1.332-.518,2.665l-46.3,1.788c.088,1.043.172,2.088.26,3.131h49.63c-9.8,2.2-19.54,1.765-29.139,2.332-8.671.513-17.179,2.123-25.762,3.249,29.084-1.475,43.59-.252,46.005,4.627l-104.55,4.6c-4.646,3.861-7.017,5.834-10.166,8.449l41.9-7.1,1.153,2.278q-6.867,2.036-13.734,4.077.571,1.72,1.14,3.439l208.4-16.381.4,2.09L1499.4,298.8q.508,2.815,1.022,5.631l165.9-7.841q.2.928.391,1.854l-51.564,4.594q0,1.322,0,2.645c42.163-2.525,84.5-8.6,126.184.37l-17.814,1.531q.361,1.537.719,3.073c13.839-1.4,28.052-1.976,41.4-4.453,11.693-2.171,19.673-1.078,24.245,4.232-15.284,2.227-31.594,4.6-47.907,6.98.286.96.577,1.918.863,2.876l19.2-.863q.181,1,.355,1.989l-65.464,6.986.127.627h65.406l-.1,1.219q-19.932,2.114-39.865,4.232.66,2.9,1.322,5.8c16.645-1.18,33.359-2.08,49.922-3.617,16.476-1.527,32.8-3.686,49.19-5.583q24.557-2.843,49.105-5.716l.586,2.024L1702.1,349.706m-443.03,119.059h59.714a203.344,203.344,0,0,0-59.714,0M560.034,496.5c-.215.956-.427,1.912-.641,2.868l58.121,4.507q.2-1.018.4-2.032ZM542.061,31.018c14.382,13.445,37.963,10.875,58.724,13.217L542.061,31.018M728.808,267.1c-.179.625-.362,1.25-.541,1.875l60.772,7.274q.513-1.065,1.022-2.127L728.808,267.1m141.2,194.485c-.042.6-.085,1.19-.124,1.786q45.4.956,90.8,1.916.073-1.85.14-3.7Zm346.583-282.173-.107.944,57.379,2.005q-.078-1.474-.163-2.949Zm95.948-50.766V126.74l-58.291-2.581q-.19,1.077-.387,2.15l16.85,1.519c-4.148.344-8.17.677-12.191,1.008.075.662.15,1.322.225,1.985q26.9-1.09,53.794-2.175m365.612,198.392-40.447,3.023q.352,1.983.7,3.969l40.36-2.8-.615-4.2" transform="translate(0 10.034)" fill="#fff"/>
        <path id="Tracé_603" data-name="Tracé 603" d="M184.979,33.071c64.064,8.2,129.333,13.223,194.429,17.4C480.123,56.934,581.137,61.5,682.015,66.927c4.995.269,9.915,1.1,14.871,1.672q-.308,1.356-.612,2.711C631.4,68.852,566.439,67.159,501.7,63.724c-69.059-3.663-137.808-9.66-206.861-13.407C191.778,44.721,95.5,23.154,0,0,6.561,1.283,13.09,2.645,19.693,3.841c55.025,9.954,109.369,22.074,165.287,29.23" transform="translate(264.754 502.467)" fill="#fff"/>
        <path id="Tracé_604" data-name="Tracé 604" d="M136.1,3.973C92.148,5,46.181,6.082.212,7.158Q.1,5.715,0,4.271L120.085.308,119.545,0c6.073,1.459,12.129,2.912,16.554,3.973" transform="translate(1503.938 436.438)" fill="#fff"/>
        <path id="Tracé_605" data-name="Tracé 605" d="M0,0,52.44,12.362C9.781,9.753,5.545,8.733,0,0" transform="translate(395.301 204.704)" fill="#fff"/>
        <path id="Tracé_606" data-name="Tracé 606" d="M0,3.29,81.986,0,82.2,2.916Q41.188,4.275.176,5.631L0,3.29" transform="translate(1206.469 106.763)" fill="#fff"/>
        <path id="Tracé_607" data-name="Tracé 607" d="M0,4.037.586,0,65.933,6.57Q65.7,7.685,65.477,8.8L0,4.037" transform="translate(289.758 0)" fill="#fff"/>
        <path id="Tracé_608" data-name="Tracé 608" d="M0,2.051C.114,1.368.225.683.339,0H36.305q-.572,1.915-1.14,3.835Z" transform="translate(1578.024 112.538)" fill="#fff"/>
      </g>
    </g>
  </g>
</svg>
